<svg width="1024" height="1024" xmlns="http://www.w3.org/2000/svg"><path d="M902.75 717.428c-3.738-2.028-3.51-2.873.25-.928 1.65.853 3 1.765 3 2.026 0 .643-.107.607-3.25-1.098zM119.482 704.51c-1.087-20.3 1.301-50.256 5.595-70.187 3.035-14.087 10.004-34.649 15.857-46.782 5.161-10.701 15.001-26.048 22.095-34.46 2.184-2.59 3.95-5.13 3.923-5.645-.026-.515-2.453-2.659-5.392-4.764-7.389-5.293-19.17-17.033-25.365-25.277-24.002-31.941-26.775-77.378-7.112-116.56 7.744-15.432 20.47-33.547 22.31-31.758.327.317.112 4.367-.478 9-1.916 15.043.541 24.979 8.27 33.435 2.758 3.018 5.474 5.488 6.034 5.488.663 0 .779-2.87.331-8.25-.848-10.19 1.139-23.555 5.475-36.833C182.4 337.076 217.46 300.585 262 277.23c12.39-6.497 29.805-13.759 30.744-12.82.317.318-1.027 4.068-2.988 8.334-6.483 14.104-8.756 24.164-8.756 38.751 0 18.297 6.878 35.61 22.844 57.505 3.008 4.125 4.45 6.6 3.206 5.5-7.638-6.751-21.787-32.139-25.08-45-3.785-14.78-2.402-33.868 3.674-50.711 1.382-3.831 2.313-7.165 2.07-7.409-.244-.244-3.599 3.283-7.454 7.838-18.377 21.71-25.989 40.547-24.964 61.782.626 12.979 4.25 23.827 11.929 37.742 4.059 7.356 4.302 10.33 3.487 11.146-1.389 1.389-10.698 1.44-17.826.098-12.362-2.327-23.201-10.79-29.067-22.698-2.978-6.044-3.373-7.868-3.847-17.762l-.528-11.026-7.1 7.243c-14.142 14.426-12.92 31.022-23.306 50.757-6.448 12.253 1.677 11.484-3.868 16.755-3.164 3.007-13.044-10.315-15.298-13.94L167.5 395.5l-.282 11.75c-.155 6.463-.654 11.75-1.109 11.75-2.461 0-10.363-8.771-13.322-14.789-3.209-6.524-3.286-6.986-3.23-19.447.033-7.02-.192-12.757-.5-12.75-1.6.043-9.29 12.219-10.692 16.93-2.43 8.166-1.427 20.242 2.59 31.22 3.657 9.988 7.419 16.549 16.09 28.057 7.376 9.787 7.845 10.779 5.1 10.779-4.559 0-13.315-4.303-18.615-9.146-3.19-2.916-5.959-4.707-6.632-4.29-.801.494-.998 3.51-.643 9.825.862 15.302 6.498 27.482 19.156 41.403 3.801 4.18 6.447 7.755 5.88 7.944-1.434.478-13.926-4.323-18.78-7.218-4.533-2.702-14.491-12.017-19.263-18.018-3.025-3.804-3.183-3.876-3.214-1.472-.047 3.488 4.516 17.128 8.171 24.427 6.296 12.576 16 24.245 29.608 35.602 5.234 4.369 10.122 7.943 10.862 7.943.74 0 5.425-2.523 10.41-5.606 18.137-11.22 32.54-17.09 51.123-20.84 12.604-2.542 56.62-1.826 49.792.81-.825.319-5.255 1.947-9.845 3.618-19.333 7.038-43.003 21.41-57.48 34.901-5.762 5.37-22.078 23.029-35.675 38.611-20 22.92-26.345 29.56-27.317 28.589-1.21-1.21.78-25.536 2.95-36.054 2.234-10.84 6.099-22.52 10.102-30.529 3.462-6.926 3.47-6.974.786-4.5-3.97 3.657-12.6 16.248-17.823 26-12.515 23.37-20.282 50.065-23.71 81.5-1.084 9.926-1.441 51.958-.456 53.551.282.457 4.89-1.699 10.24-4.79 17.48-10.104 47.563-23.918 55.728-25.593 3.897-.799 2.21-.024-12 5.51-11.899 4.634-34.944 16.055-45.787 22.692-3.712 2.271-7.37 4.13-8.128 4.13-1.07 0-1.543-3.036-2.103-13.49zm212.952 1.74c-.867-8.08.117-47.502 1.555-62.25 7.596-77.915 32.417-133.423 75.511-168.869l4-3.29-3.948-3.17c-10.96-8.802-18.83-16.184-26.37-24.736-24.417-27.692-43.18-67.316-48.23-101.846-1.752-11.99-.702-38.127 1.963-48.835 2.6-10.442 8.148-24.86 12.797-33.254 8.237-14.871 23.789-35.936 25.335-34.316.428.449.078 4.191-.777 8.316-.96 4.634-1.596 13.231-1.662 22.5-.1 13.991.086 15.592 2.778 23.806 1.588 4.843 4.559 11.393 6.603 14.556 6.023 9.318 21.013 24.47 22.62 22.863.27-.271-.396-4.033-1.483-8.36-3.23-12.859-4.38-23.045-4.272-37.865.12-16.468 1.224-25.036 5.156-40 8.03-30.565 25.255-58.133 53.114-85.01 31.164-30.067 64.461-52.048 101.32-66.889 4.92-1.98 9.801-3.601 10.849-3.601 1.823 0 1.813.137-.236 3.25-16.22 24.637-20.32 58.295-10.618 87.151 6.59 19.603 15.355 34.418 38.585 65.221 7.83 10.383 14.515 19.35 14.856 19.925 1.464 2.473-4.502-4.65-9.67-11.547a857.944 857.944 0 00-11.555-14.99c-14.536-18.352-27.953-41.672-33.169-57.65-4.213-12.905-5.849-25.265-5.144-38.859.668-12.869 3.739-26.879 7.499-34.211 1.187-2.316 2.159-4.48 2.159-4.81 0-3.101-11.032 13.617-17.392 26.357-17.106 34.265-19.094 78.6-5.183 115.561 5.88 15.62 19.25 38.805 30.703 53.244 2.68 3.378 4.872 6.702 4.872 7.387 0 4.081-36.302-6.68-56.5-16.748-19.638-9.789-36.67-23.859-44.355-36.643-7.574-12.6-11.925-29.964-10.747-42.888 1.025-11.236-.983-9.358-13.096 12.25-6.744 12.03-12.56 26.834-15.981 40.682-2.327 9.417-2.683 12.955-2.747 27.318-.04 9.075.316 19.538.793 23.25 1.04 8.11.456 8.372-8.289 3.711-7.669-4.088-15.042-10.704-19.719-17.693-3.708-5.542-3.872-5.658-4.182-2.945-.407 3.545 2.38 21.557 4.346 28.086 1.656 5.503 1.915 9.591.608 9.591-1.878 0-11.579-8.646-17.268-15.391-7.235-8.578-13.377-20.614-15.364-30.109-1.886-9.014-1.883-23.375.007-35.916 1.29-8.555 1.352-12.082.187-10.5-.17.229-1.743 2.28-3.499 4.558-4.139 5.372-8.765 16.33-11.95 28.307-3.19 11.99-3.623 30.702-.95 41.051 3.532 13.684 19.196 40.407 33.703 57.5 5.925 6.98 5.168 7.802-3.824 4.149-8.936-3.632-16.578-9.106-21.926-15.707-2.61-3.224-5.422-5.75-6.247-5.615-2.268.372-1.545 9.284 1.586 19.547 4.582 15.022 11.279 26.295 25.225 42.463 5.142 5.96 9.134 11.052 8.871 11.314-.83.831-13.941-6.254-20.182-10.907-8.707-6.49-16.605-14.612-22.677-23.318-6.085-8.726-7.266-7.904-3.24 2.254 6.798 17.152 19.224 38.503 30.742 52.82 7.402 9.201 22.553 24.103 30.888 30.382l5.714 4.303 13.025-6.623c23.179-11.786 47.28-18.35 70.588-19.224 13.132-.493 36.254 1.056 37.724 2.526.436.436-1.87 1.533-5.123 2.437-14.905 4.144-35.96 15.324-52.558 27.909-18.84 14.283-41.682 36.868-74.125 73.29-13.734 15.418-33.728 36.91-35.166 37.8-1.72 1.065-1.677-2.17.199-14.612 5.923-39.294 15.5-63.299 37.509-94.01 4.705-6.565-10.86 7.159-18.416 16.238-30.31 36.42-47.52 84.833-53.706 151.084-1.503 16.1-1.72 61.559-.3 62.978.636.636 3.064-.294 6.95-2.659 14.05-8.553 50.207-24.566 62.864-27.843 7.952-2.058 8.28-1.207.385 1-13.305 3.718-47.044 18.724-62.603 27.842-3.454 2.025-6.896 3.682-7.648 3.682-.95 0-1.588-2.063-2.092-6.75zM893 712c-.901-.582-1.025-.975-.309-.985.655-.008 1.47.435 1.809.985.767 1.242.421 1.242-1.5 0zm-209.559-2.555c-1.864-1.494-1.852-1.512.309-.465 1.237.6 2.25 1.3 2.25 1.555 0 .765-.519.544-2.559-1.09zM888 709.5c-1.375-.786-2.024-1.445-1.441-1.465.582-.02 1.932.626 3 1.433 2.469 1.868 1.68 1.884-1.559.032zm-5-2.5c-.901-.582-1.025-.975-.309-.985.655-.008 1.47.435 1.809.985.767 1.242.421 1.242-1.5 0zm-214-5c-3.025-1.598-5.148-2.927-4.717-2.953 1.063-.064 10.717 4.863 10.717 5.47 0 .668.139.726-6-2.517zm201-1c-.825-.533-1.05-.97-.5-.97s1.675.437 2.5.97c.825.533 1.05.97.5.97s-1.675-.437-2.5-.97zm-7-3c-.825-.533-1.05-.97-.5-.97s1.675.437 2.5.97c.825.533 1.05.97.5.97s-1.675-.437-2.5-.97zm-5-2c-.825-.533-1.05-.97-.5-.97s1.675.437 2.5.97c.825.533 1.05.97.5.97s-1.675-.437-2.5-.97zm-206-2c-.825-.533-1.05-.97-.5-.97s1.675.437 2.5.97c.825.533 1.05.97.5.97s-1.675-.437-2.5-.97zm182-7c-.825-.533-1.05-.97-.5-.97s1.675.437 2.5.97c.825.533 1.05.97.5.97s-1.675-.437-2.5-.97zm74.31-4.5c.006-3.3.192-4.53.415-2.732.222 1.797.218 4.497-.01 6-.229 1.503-.41.032-.405-3.268zM630 685c-.825-.533-1.05-.97-.5-.97s1.675.437 2.5.97c.825.533 1.05.97.5.97s-1.675-.437-2.5-.97zm62.32-9c0-3.575.182-5.037.403-3.25.222 1.788.222 4.713 0 6.5-.221 1.788-.403.325-.403-3.25zm111.492 1.317c.722-.289 1.585-.253 1.917.079.332.332-.258.568-1.312.525-1.165-.048-1.402-.285-.605-.604zm-588-1c.722-.289 1.585-.253 1.917.079.332.332-.258.568-1.312.525-1.165-.048-1.402-.285-.604-.604zm581-1c.722-.289 1.585-.253 1.917.079.332.332-.258.568-1.312.525-1.165-.048-1.402-.285-.605-.604zm-574-1c.722-.289 1.585-.253 1.917.079.332.332-.258.568-1.312.525-1.165-.048-1.402-.285-.604-.604zm374 0c.722-.289 1.585-.253 1.917.079.332.332-.258.568-1.312.525-1.165-.048-1.402-.285-.605-.604zm-4-1c.722-.289 1.585-.253 1.917.079.332.332-.258.568-1.312.525-1.165-.048-1.402-.285-.605-.604zm197 0c.722-.289 1.585-.253 1.917.079.332.332-.258.568-1.312.525-1.165-.048-1.402-.285-.605-.604zm-560-1c.722-.289 1.585-.253 1.917.079.332.332-.258.568-1.312.525-1.165-.048-1.402-.285-.604-.604zm205 0c.722-.289 1.585-.253 1.917.079.332.332-.258.568-1.312.525-1.165-.048-1.402-.285-.604-.604zm154 0c.722-.289 1.585-.253 1.917.079.332.332-.258.568-1.312.525-1.165-.048-1.402-.285-.605-.604zm197 0c.722-.289 1.585-.253 1.917.079.332.332-.258.568-1.312.525-1.165-.048-1.402-.285-.605-.604zm-347-1c.722-.289 1.585-.253 1.917.079.332.332-.258.568-1.312.525-1.165-.048-1.402-.285-.604-.604zm343 0c.722-.289 1.585-.253 1.917.079.332.332-.258.568-1.312.525-1.165-.048-1.402-.285-.605-.604zm125.383-1.817c.02-1.65.244-2.204.498-1.231.254.973.237 2.323-.037 3-.274.677-.481-.119-.461-1.769zm-464.383.817c.722-.289 1.585-.253 1.917.079.332.332-.258.568-1.312.525-1.165-.048-1.402-.285-.605-.604zm137 0c.722-.289 1.585-.253 1.917.079.332.332-.258.568-1.312.525-1.165-.048-1.402-.285-.605-.604zm198 0c.722-.289 1.585-.253 1.917.079.332.332-.258.568-1.312.525-1.165-.048-1.402-.285-.605-.604zm-330-1c.722-.289 1.585-.253 1.917.079.332.332-.258.568-1.312.525-1.165-.048-1.402-.285-.604-.604zm127 0c.722-.289 1.585-.253 1.917.079.332.332-.258.568-1.312.525-1.165-.048-1.402-.285-.605-.604zm199 0c.722-.289 1.585-.253 1.917.079.332.332-.258.568-1.312.525-1.165-.048-1.402-.285-.605-.604zm-321-1c.722-.289 1.585-.253 1.917.079.332.332-.258.568-1.312.525-1.165-.048-1.402-.285-.604-.604zm116.938.02c.688-.277 1.813-.277 2.5 0 .688.278.125.505-1.25.505s-1.938-.227-1.25-.504zm199.063-.02c.721-.289 1.584-.253 1.916.079.332.332-.258.568-1.312.525-1.165-.048-1.402-.285-.605-.604zm-310-1c.721-.289 1.584-.253 1.916.079.332.332-.258.568-1.312.525-1.165-.048-1.402-.285-.604-.604zm106 0c.721-.289 1.584-.253 1.916.079.332.332-.258.568-1.312.525-1.165-.048-1.402-.285-.605-.604zm200 0c.721-.289 1.584-.253 1.916.079.332.332-.258.568-1.312.525-1.165-.048-1.402-.285-.605-.604zm-511-1c.721-.289 1.584-.253 1.916.079.332.332-.258.568-1.312.525-1.165-.048-1.402-.285-.604-.604zm210.456-.01c.973-.254 2.323-.237 3 .037.677.274-.119.481-1.769.461-1.65-.02-2.204-.245-1.231-.498zm93.481.03c.688-.277 1.813-.277 2.5 0 .688.278.125.505-1.25.505s-1.938-.227-1.25-.504zm-299.938-1.02c.722-.29 1.585-.254 1.917.079.332.332-.258.568-1.312.525-1.165-.048-1.402-.285-.604-.604zm213.457-.01c.973-.254 2.323-.237 3 .037.677.274-.119.481-1.769.46-1.65-.02-2.204-.244-1.231-.497zm79.481.03c.688-.277 1.813-.277 2.5 0 .688.278.125.505-1.25.505s-1.938-.227-1.25-.505zm201.25-.43c-1.925-.487-12.032-2.48-22.46-4.427-10.427-1.947-19.308-4.089-19.734-4.76-.426-.67-.782-2.031-.79-3.023-.03-3.482-7.189-38.368-11.122-54.197-2.187-8.8-7.576-26.752-11.976-39.893l-8-23.893L681.17 532l3.251-2.714-5.546-6.393c-12.588-14.512-20.142-29.754-23.982-48.393-1.562-7.58-1.557-28.964.008-37.5 1.897-10.343 6.952-25.75 11.261-34.32 7.535-14.987 23.33-36.471 25.354-34.486.389.382.15 4.616-.53 9.41-1.442 10.162-.775 18.822 1.92 24.915 1.901 4.297 9.546 13.481 11.222 13.481.48 0 .873-3.342.873-7.428 0-23.042 7.828-46.004 22.838-66.989 20.344-28.443 56.674-55.558 96.565-72.071 13.058-5.405 13.356-5.21 7.981 5.238-13.929 27.076-7.008 57.16 24.042 104.5.992 1.513 1.593 2.75 1.335 2.75s-3.406-4.387-6.995-9.75c-23.915-35.73-31.874-67.99-22.606-91.63 2.272-5.795 1.73-7-1.396-3.106-7.698 9.586-11.284 15.015-15.287 23.14-12.965 26.319-12.375 55.663 1.682 83.636 1.6 3.184 2.643 6.222 2.316 6.75-.882 1.427-14.213 1.14-20.125-.435-19.875-5.292-31.31-22.427-29.597-44.355.268-3.437.253-6.25-.034-6.25-.286 0-2.79 1.913-5.564 4.25-16.24 13.684-28.96 37.337-31.648 58.85l-.679 5.431c-23.035-2.73-.355 161.178-4.85 2.722-.011-.414-1.856-2.052-4.1-3.64-2.242-1.587-5.702-5.147-7.687-7.91l-3.61-5.025-.903 3.411c-.497 1.876-.65 7.124-.34 11.661.519 7.577.413 8.25-1.294 8.25-2.47 0-10.223-8.735-13.066-14.72-2.78-5.852-3.628-16.107-2.129-25.74.595-3.818.88-7.144.634-7.39-.887-.888-8.506 8.467-11.092 13.619-2.06 4.106-2.756 7.229-3.15 14.147-.894 15.665 4.23 30.474 17.09 49.396C697 452.71 700 457.555 700 458.082c0 .532-1.22.672-2.75.316-5.955-1.385-11.493-4.514-16.696-9.435-3.275-3.098-5.915-4.858-6.626-4.418-.833.515-1.04 3.566-.7 10.343.79 15.717 5.962 27.788 18.156 42.376l5.885 7.04-3.385-.653c-1.861-.359-6.653-2.255-10.648-4.213-7.878-3.862-14.697-10.017-22.02-19.876l-4.502-6.062.584 5.147c.783 6.91 5.273 18.175 11.272 28.282 5.303 8.935 15.698 21.071 18.047 21.071.792 0 4.015-1.299 7.162-2.886 8.915-4.496 21.787-8.692 32.611-10.63 15.738-2.818 37.8-1.685 56.11 2.88 15.114 3.768 20.088 5.381 19.232 6.237-.3.3-3.778 1.215-7.73 2.033-33.141 6.859-60.769 26.616-88.537 63.313-6.751 8.923-6.78 5.793.378 40.714 2.836 13.838 5.157 25.405 5.157 25.704 0 .3 1.688.83 3.75 1.179 12.864 2.176 40.71 7.702 42.552 8.444 2.023.815 2.039.882.198.846-1.1-.021-3.575-.438-5.5-.926zm-272.238-.614c1.244-.24 3.044-.23 4 .02s-.062.446-2.262.435c-2.2-.011-2.982-.216-1.738-.455zm62.507.014c.973-.253 2.323-.237 3 .037.677.274-.119.482-1.769.461-1.65-.02-2.204-.244-1.231-.498zM906.158 663c0-1.375.227-1.938.504-1.25.278.688.278 1.813 0 2.5-.277.688-.504.125-.504-1.25zm-639.346.317c.722-.289 1.585-.253 1.917.079.332.332-.258.568-1.312.525-1.165-.048-1.402-.285-.604-.604zm225.438-.046c2.063-.215 5.438-.215 7.5 0 2.063.216.375.393-3.75.393s-5.813-.177-3.75-.393zm35 .013c1.512-.23 3.987-.23 5.5 0 1.512.229.275.416-2.75.416s-4.263-.187-2.75-.416zM691.232 661c0-1.925.206-2.712.457-1.75.252.963.252 2.538 0 3.5-.251.963-.457.175-.457-1.75zm-419.42 1.317c.722-.289 1.585-.253 1.917.079.332.332-.258.568-1.312.525-1.165-.048-1.402-.285-.605-.604zm5-1c.722-.289 1.585-.253 1.917.079.332.332-.258.568-1.312.525-1.165-.048-1.402-.285-.605-.604zm5-1c.722-.289 1.585-.253 1.917.079.332.332-.258.568-1.312.525-1.165-.048-1.402-.285-.605-.604zm5-1c.722-.289 1.585-.253 1.917.079.332.332-.258.568-1.312.525-1.165-.048-1.402-.285-.605-.604zm6-1c.722-.289 1.585-.253 1.917.079.332.332-.258.568-1.312.525-1.165-.048-1.402-.285-.605-.604zm5-1c.722-.289 1.585-.253 1.917.079.332.332-.258.568-1.312.525-1.165-.048-1.402-.285-.605-.604zm607.267-.9c.048-1.165.285-1.402.604-.605.289.722.253 1.585-.079 1.917-.332.332-.568-.258-.525-1.312zm-602.329-.08c.688-.277 1.813-.277 2.5 0 .688.278.125.505-1.25.505s-1.938-.227-1.25-.504zm6.063-1.02c.721-.289 1.584-.253 1.916.079.332.332-.258.568-1.312.525-1.165-.048-1.402-.285-.604-.604zm381.382-3.817c.02-1.65.244-2.204.498-1.231.254.973.237 2.323-.037 3-.274.677-.481-.119-.461-1.769zm213.884-.083c.048-1.165.285-1.402.604-.604.289.721.253 1.584-.079 1.916-.332.332-.568-.258-.525-1.312zM313.232 645c0-1.925.206-2.712.457-1.75.252.963.252 2.538 0 3.5-.251.963-.457.175-.457-1.75zm589.847 1.417c.048-1.165.285-1.402.604-.605.289.722.253 1.585-.079 1.917-.332.332-.568-.258-.525-1.312zM689.158 644c0-1.375.227-1.938.504-1.25.278.688.278 1.813 0 2.5-.277.688-.504.125-.504-1.25zm212.92-1.583c.049-1.165.286-1.402.605-.605.289.722.253 1.585-.079 1.917-.332.332-.568-.258-.525-1.312zM314.196 637.5c.02-1.65.244-2.204.498-1.231.254.973.237 2.323-.037 3-.274.677-.481-.119-.461-1.769zm373.963.5c0-1.375.227-1.938.504-1.25.278.688.278 1.813 0 2.5-.277.688-.504.125-.504-1.25zm211.92-3.583c.049-1.165.286-1.402.605-.605.289.722.253 1.585-.079 1.917-.332.332-.568-.258-.525-1.312zM687.159 632c0-1.375.227-1.938.504-1.25.278.688.278 1.813 0 2.5-.277.688-.504.125-.504-1.25zm-372-1c0-1.375.227-1.938.504-1.25.278.688.278 1.813 0 2.5-.277.688-.504.125-.504-1.25zm370.92-4.583c.049-1.165.286-1.402.605-.605.289.722.253 1.585-.079 1.917-.332.332-.568-.258-.525-1.312zM316.159 625c0-1.375.227-1.938.504-1.25.278.688.278 1.813 0 2.5-.277.688-.504.125-.504-1.25zm368.92-3.583c.049-1.165.286-1.402.605-.605.289.722.253 1.585-.079 1.917-.332.332-.568-.258-.525-1.312zm210.546.044c-.965-2.514-.68-3.163.498-1.136.584 1.004.85 2.036.593 2.293-.257.258-.749-.263-1.091-1.157zM317.158 619c0-1.375.227-1.938.504-1.25.278.688.278 1.813 0 2.5-.277.688-.504.125-.504-1.25zm366.92-2.583c.049-1.165.286-1.402.605-.605.289.722.253 1.585-.079 1.917-.332.332-.568-.258-.525-1.312zm-366-3c.049-1.165.286-1.402.605-.605.289.722.253 1.585-.079 1.917-.332.332-.568-.258-.525-1.312zm364-6c.049-1.165.286-1.402.605-.605.289.722.253 1.585-.079 1.917-.332.332-.568-.258-.525-1.312zm-362-3c.049-1.165.286-1.402.605-.605.289.722.253 1.585-.079 1.917-.332.332-.568-.258-.525-1.312zm568.546.044c-.965-2.514-.68-3.163.498-1.136.584 1.004.85 2.036.593 2.293-.257.258-.749-.263-1.091-1.157zm-207.545-1.044c.048-1.165.285-1.402.604-.604.289.721.253 1.584-.079 1.916-.332.332-.568-.258-.525-1.312zm-360-3c.048-1.165.285-1.402.604-.604.289.721.253 1.584-.079 1.916-.332.332-.568-.258-.525-1.312zm358-4c.048-1.165.285-1.402.604-.604.289.721.253 1.584-.079 1.916-.332.332-.568-.258-.525-1.312zM883 593c-.589-1.1-.845-2-.57-2s.981.9 1.57 2c.589 1.1.845 2 .57 2s-.981-.9-1.57-2zm-204.921-.583c.048-1.165.285-1.402.604-.605.289.722.253 1.585-.079 1.917-.332.332-.568-.258-.525-1.312zm-354-4c.048-1.165.285-1.402.604-.605.289.722.253 1.585-.079 1.917-.332.332-.568-.258-.525-1.312zm2-7c.048-1.165.285-1.402.604-.605.289.722.253 1.585-.079 1.917-.332.332-.568-.258-.525-1.312zm544.795-7.167c-2.304-3.163-7.719-9.645-12.032-14.406-4.313-4.762-7.842-9.266-7.842-10.01 0-.744 1.012-1.975 2.25-2.735 2.228-1.369 2.232-1.362.39.71-2.161 2.43-2.314 2.183 9.443 15.33C869.396 570.197 876.661 580 875.58 580c-.284 0-2.402-2.588-4.706-5.75zm-199.25-1.789c-.965-2.514-.68-3.163.498-1.136.584 1.004.85 2.036.593 2.293-.257.258-.749-.263-1.091-1.157zM333.03 558.718c-.017-.98 1.36-5.388 3.059-9.795 1.7-4.407 2.861-8.608 2.582-9.336-.28-.728-3.47-2.98-7.09-5.004-3.62-2.024-6.582-4.054-6.582-4.51 0-.455.787-1.446 1.75-2.2 1.57-1.233 1.615-1.2.433.31-1.449 1.852-1.538 1.772 8.015 7.18 2.584 1.464 4.939 3.049 5.232 3.523.293.475-1.245 5.532-3.417 11.239-2.173 5.706-3.965 9.573-3.982 8.593zm331.593-4.257c-.965-2.514-.68-3.163.498-1.136.584 1.004.85 2.036.593 2.293-.257.258-.749-.263-1.091-1.157zM859 543.622c0-.207.787-.995 1.75-1.75 1.586-1.243 1.621-1.208.378.378-1.307 1.666-2.128 2.195-2.128 1.372zm10-9.122c3.543-3.575 6.667-6.5 6.942-6.5.275 0-2.399 2.925-5.942 6.5s-6.667 6.5-6.942 6.5c-.275 0 2.399-2.925 5.942-6.5zM653 531c-1.122-2.2-1.816-4-1.54-4 .274 0 1.418 1.8 2.54 4s1.816 4 1.54 4c-.274 0-1.418-1.8-2.54-4zm224.511-6.377c.946-1.443 1.908-2.623 2.14-2.623.723 0-1.606 3.854-2.76 4.567-.604.374-.325-.501.62-1.944zM330 523.5c1.292-1.375 2.574-2.5 2.849-2.5.275 0-.557 1.125-1.849 2.5-1.292 1.375-2.574 2.5-2.849 2.5-.275 0 .557-1.125 1.849-2.5zm314.976-5.71c-11.905-16.516-16.608-22.142-26.199-31.34-5.706-5.472-13.608-12.2-17.56-14.95-3.951-2.75-7.192-5.493-7.2-6.095-.01-.602.995-1.952 2.233-3 2.248-1.903 2.248-1.903.5.174-.963 1.143-1.75 2.328-1.75 2.633 0 .305 3.712 3.27 8.25 6.588 16.144 11.807 27.473 23.64 39.924 41.7 5.952 8.633 7.128 10.5 6.61 10.5-.182 0-2.347-2.794-4.808-6.21zm-309.513-1.54c1.541-2.337 2.993-4.25 3.226-4.25.722 0-3.107 6.086-4.609 7.327-.781.645-.159-.74 1.383-3.077zm549.568-4.75c0-.55.436-1.675.969-2.5.533-.825.97-1.05.97-.5s-.437 1.675-.97 2.5c-.533.825-.97 1.05-.97.5zm5.048-15.083c.048-1.165.285-1.402.604-.604.289.721.253 1.584-.079 1.916-.332.332-.568-.258-.525-1.312zm1-5c.048-1.165.285-1.402.604-.604.289.721.253 1.584-.079 1.916-.332.332-.568-.258-.525-1.312zM347.158 489c0-1.375.227-1.938.504-1.25.278.688.278 1.813 0 2.5-.277.688-.504.125-.504-1.25zm545.037-4.5c.02-1.65.244-2.204.498-1.231.254.973.237 2.323-.037 3-.274.677-.481-.119-.461-1.769zm-544.037-.5c0-1.375.227-1.938.504-1.25.278.688.278 1.813 0 2.5-.277.688-.504.125-.504-1.25zm1.216-14.5c.002-6.05.167-8.396.366-5.213.2 3.182.197 8.132-.004 11-.201 2.867-.364.263-.362-5.787zm542.878-7c.011-2.2.216-2.982.455-1.738.24 1.244.23 3.044-.02 4s-.446-.062-.435-2.262zm-88.58-1.895c-13.968-3.864-22.606-19.056-18.722-32.928 1.73-6.177 7.683-13.615 13.147-16.425 22.483-11.564 47.015 11.352 36.939 34.505-5.057 11.619-19.066 18.25-31.364 14.848zm17.884-2.979c5.837-2.718 12.01-9.404 13.442-14.56 2.649-9.533.333-19.581-5.963-25.877-15.203-15.203-41.191-6.554-43.69 14.542-2.347 19.82 18.003 34.374 36.21 25.895zM601 458.5c1.292-1.375 2.574-2.5 2.849-2.5.275 0-.557 1.125-1.849 2.5-1.292 1.375-2.574 2.5-2.849 2.5-.275 0 .557-1.125 1.849-2.5zm290.158-3.5c0-1.375.227-1.938.504-1.25.278.688.278 1.813 0 2.5-.277.688-.504.125-.504-1.25zm-543-1c0-1.375.227-1.938.504-1.25.278.688.278 1.813 0 2.5-.277.688-.504.125-.504-1.25zM605 455.937c0-.275 2.7-3.171 6-6.437 3.3-3.266 6-5.712 6-5.437 0 .275-2.7 3.171-6 6.437-3.3 3.266-6 5.712-6 5.437zM890.158 450c0-1.375.227-1.938.504-1.25.278.688.278 1.813 0 2.5-.277.688-.504.125-.504-1.25zm-543.08-1.583c.049-1.165.286-1.402.605-.604.289.721.253 1.584-.079 1.916-.332.332-.568-.258-.525-1.312zm542-3c.049-1.165.286-1.402.605-.604.289.721.253 1.584-.079 1.916-.332.332-.568-.258-.525-1.312zm-543-1c.049-1.165.286-1.402.605-.604.289.721.253 1.584-.079 1.916-.332.332-.568-.258-.525-1.312zm274.309-5.714c2.12-2.586 4.063-4.703 4.317-4.703.682 0-5.65 7.849-7.01 8.69-.639.394.573-1.4 2.693-3.987zm-276.308-.371c-.043-.643-.338-1.993-.655-3-.547-1.741-.518-1.744.571-.044.63.983.925 2.333.655 3-.355.875-.514.887-.571.044zm283.384-9.082c1.541-2.337 2.993-4.25 3.226-4.25.722 0-3.107 6.086-4.609 7.327-.781.645-.159-.74 1.383-3.077zm254.7-3.793c-1.676-3.677-1.356-4.462.455-1.119.846 1.562 1.351 3.026 1.123 3.255-.229.228-.94-.733-1.579-2.136zm-545.019-5.207c-1.09-2.55-1.066-2.609.34-.809.834 1.068 1.516 2.305 1.516 2.75 0 1.52-.678.81-1.856-1.941zM633 420c.589-1.1 1.295-2 1.57-2 .275 0 .019.9-.57 2s-1.295 2-1.57 2c-.275 0-.019-.9.57-2zm4.03-7.5c0-.55.437-1.675.97-2.5.533-.825.97-1.05.97-.5s-.437 1.675-.97 2.5c-.533.825-.97 1.05-.97.5zM874 409c-.589-1.1-.845-2-.57-2s.981.9 1.57 2c.589 1.1.845 2 .57 2s-.981-.9-1.57-2zm-3.5-6c-.853-1.65-1.326-3-1.051-3 .275 0 1.198 1.35 2.051 3 .853 1.65 1.326 3 1.051 3-.275 0-1.198-1.35-2.051-3zm-546.908-5.75c-2.03-3.163-2.645-4.52-1.366-3.015 2.524 2.969 6.143 8.765 5.472 8.765-.228 0-2.076-2.587-4.106-5.75zm321.487-6.833c.048-1.165.285-1.402.604-.604.289.721.253 1.584-.079 1.916-.332.332-.568-.258-.525-1.312zm-327.207-1.167c-1.243-1.586-1.208-1.621.378-.378.963.755 1.75 1.543 1.75 1.75 0 .823-.821.294-2.128-1.372zM646.158 386c0-1.375.227-1.938.504-1.25.278.688.278 1.813 0 2.5-.277.688-.504.125-.504-1.25zm-331.286-.75c-1.243-1.586-1.208-1.621.378-.378 1.666 1.307 2.195 2.128 1.372 2.128-.207 0-.995-.787-1.75-1.75zM647.158 380c0-1.375.227-1.938.504-1.25.278.688.278 1.813 0 2.5-.277.688-.504.125-.504-1.25zm-337.286-1.75c-1.243-1.586-1.208-1.621.378-.378 1.666 1.307 2.195 2.128 1.372 2.128-.207 0-.995-.787-1.75-1.75zM648.158 374c0-1.375.227-1.938.504-1.25.278.688.278 1.813 0 2.5-.277.688-.504.125-.504-1.25zm1.114-9c0-2.475.195-3.487.434-2.25.238 1.238.238 3.263 0 4.5-.239 1.238-.434.225-.434-2.25zm-202.042 1.175c-7.544-2.693-14.095-8.62-18.068-16.346-2.866-5.573-3.338-7.501-3.338-13.628 0-12.085 6.832-23.344 17.613-29.024 4.456-2.347 6.203-2.667 14.563-2.667 8.364 0 10.098.317 14.5 2.658 15.82 8.413 22.385 27.3 14.735 42.392-5.64 11.125-15.341 17.49-27.63 18.128-5.176.268-8.536-.143-12.375-1.513zm23.961-2.434c10.842-5.023 17.006-14.2 17.626-26.241.66-12.836-5.819-23.882-17.333-29.547-7.005-3.448-19.789-3.483-26.72-.075-10.37 5.1-16.935 14.908-17.594 26.288-.497 8.573 1.68 15.246 6.913 21.19 9.855 11.197 24.095 14.414 37.108 8.385zm67.014 2.426c-6.174-2.204-11.407-6.164-15.928-12.053-8.4-10.942-7.354-28.25 2.359-39.054 11.24-12.502 28.486-14.883 41.988-5.796 16.784 11.294 19.183 34.637 5.023 48.877-8.566 8.615-22.455 11.948-33.442 8.026zm23.255-2.52c7.2-3.296 12.002-7.851 15.25-14.465 2.31-4.705 2.786-6.972 2.77-13.182-.035-12.376-5.974-22.1-16.917-27.698-16.777-8.581-38.756 1.065-43.71 19.183-3.589 13.124 1.864 27.749 12.717 34.109 10.124 5.933 19.942 6.607 29.89 2.053zM649.272 346c0-2.475.195-3.487.434-2.25.238 1.238.238 3.263 0 4.5-.239 1.238-.434.225-.434-2.25zm-1.077-10.5c.02-1.65.244-2.204.498-1.231.254.973.237 2.323-.037 3-.274.677-.481-.119-.461-1.769zm-1.116-6.083c.048-1.165.285-1.402.604-.604.289.721.253 1.584-.079 1.916-.332.332-.568-.258-.525-1.312zm-4-16c.048-1.165.285-1.402.604-.604.289.721.253 1.584-.079 1.916-.332.332-.568-.258-.525-1.312zm-2.455-6.956c-.965-2.514-.68-3.163.498-1.136.584 1.004.85 2.036.593 2.293-.257.258-.749-.263-1.091-1.157zm-7.462-18.004c-1.675-3.677-1.355-4.462.456-1.119.846 1.562 1.351 3.026 1.123 3.255-.229.228-.94-.733-1.579-2.136zM628.5 279c-.853-1.65-1.326-3-1.051-3 .275 0 1.198 1.35 2.051 3 .853 1.65 1.326 3 1.051 3-.275 0-1.198-1.35-2.051-3z" fill="#fca307"/><path d="M905.462 718.135c-1.38-1.277-20.319-10.954-31.407-16.049-25.188-11.574-67.509-25.493-100.342-33.001-7.548-1.726-14.805-3.55-16.128-4.053-2.022-.768-30.136-6.34-42.835-8.488-2.063-.35-3.75-.88-3.75-1.179 0-.299-2.32-11.866-5.157-25.704-7.158-34.921-7.13-31.79-.378-40.714 27.768-36.697 55.396-56.454 88.537-63.313 3.952-.818 7.43-1.733 7.73-2.033.856-.856-4.118-2.469-19.232-6.237-18.31-4.565-40.372-5.698-56.11-2.88-10.824 1.938-23.697 6.134-32.611 10.63-3.147 1.587-6.37 2.886-7.162 2.886-2.35 0-12.744-12.136-18.047-21.07-6-10.108-10.489-21.372-11.272-28.283l-.584-5.147 4.503 6.062c7.322 9.859 14.14 16.014 22.02 19.876 3.994 1.958 8.786 3.854 10.647 4.213l3.385.653-5.885-7.04c-12.194-14.588-17.365-26.66-18.155-42.376-.34-6.777-.134-9.828.699-10.343.711-.44 3.35 1.32 6.626 4.418 5.203 4.92 10.74 8.05 16.696 9.435 1.53.356 2.75.215 2.75-.317 0-.526-3-5.372-6.669-10.769-12.86-18.922-17.984-33.731-17.09-49.396.394-6.918 1.09-10.041 3.15-14.147 2.586-5.152 10.205-14.507 11.092-13.62.246.247-.04 3.573-.634 7.392-1.5 9.632-.651 19.887 2.129 25.739 2.843 5.985 10.596 14.72 13.066 14.72 1.707 0 1.813-.673 1.295-8.25-.31-4.537-.158-9.785.339-11.661l.903-3.411 3.61 5.024c1.985 2.764 5.476 6.28 7.688 7.911 4.667 3.441 9.628-4.512 9.628-4.512 2.688-21.514 15.408-45.167 31.648-58.851 2.774-2.338 5.278-4.25 5.564-4.25.287 0 .302 2.812.034 6.25-1.712 21.928 9.722 39.063 29.597 44.355 5.912 1.574 19.243 1.862 20.125.435.327-.528-.715-3.566-2.316-6.75-8.012-15.945-11.697-32.366-10.835-48.29 1.175-21.707 7.978-37.986 24.44-58.486 3.127-3.894 3.668-2.69 1.396 3.106-7.636 19.476-3.368 45.844 12.037 74.38 2.227 4.125 9.307 15.375 15.732 25 24.98 37.416 33.257 56.542 36.277 83.83 2.06 18.613-2.445 40.852-11.307 55.822-4.474 7.559-16.24 19.842-23.802 24.848-3.323 2.2-6.054 4.605-6.07 5.344-.015.738 3.495 5.238 7.8 10 18.682 20.66 29.109 38.58 38.564 66.278 7.553 22.13 10.748 42.977 10.957 71.5.147 20.076-.256 22.944-2.885 20.513zm2.194-22.396c-1.202-38.7-7.779-66.937-22.401-96.186-6.422-12.845-11.835-21.04-14.786-22.385-6.087-2.774-18.727.122-29.867 6.843-9.221 5.564-27.216 20.762-38.602 32.604-18.977 19.737-41.818 47.02-40.414 48.273.503.45 4.739 1.614 9.414 2.588 37.46 7.803 86.815 24.913 118.281 41.005 8.92 4.562 16.853 8.345 17.628 8.407 1.19.095 1.306-3.19.747-21.15zm-51.825-151.45c8.255-5.402 19.215-16.748 23.947-24.789 13.57-23.058 15.538-52.301 5.588-83-4.27-13.172-24.937-51.263-29.265-53.938-1.55-.958-1.389 2.113.532 10.126 2.496 10.414 2.183 35.304-.577 45.812-6.88 26.188-24.22 45.113-59.056 64.447-12.226 6.786-17.996 10.384-17.998 11.224-.001.368 1.46.985 3.248 1.37 10.809 2.325 21.84 6.335 33.25 12.085 12.816 6.459 27.972 15.828 30.467 18.834 1.904 2.295 3.616 1.918 9.864-2.17zm-734.3 171.762c-.984-1.593-.627-43.625.456-53.551 3.43-31.435 11.196-58.13 23.71-81.5 5.224-9.752 13.854-22.343 17.824-26 2.684-2.474 2.676-2.426-.786 4.5-4.003 8.01-7.868 19.689-10.103 30.53-2.168 10.517-4.158 34.844-2.95 36.053.973.972 7.319-5.669 27.318-28.589 13.597-15.582 29.913-33.24 35.675-38.61 14.477-13.492 38.147-27.864 57.48-34.902 4.59-1.671 9.02-3.299 9.845-3.618 6.828-2.636-37.188-3.352-49.792-.81-18.583 3.75-32.986 9.62-51.123 20.84-4.985 3.083-9.67 5.606-10.41 5.606-.74 0-5.628-3.574-10.862-7.943-13.607-11.357-23.312-23.026-29.608-35.602-3.655-7.3-8.218-20.94-8.171-24.427.031-2.404.189-2.332 3.214 1.472 4.772 6.001 14.73 15.316 19.262 18.018 4.855 2.895 17.347 7.696 18.78 7.218.568-.189-2.078-3.764-5.879-7.944-12.658-13.92-18.294-26.101-19.156-41.403-.355-6.314-.158-9.33.643-9.826.673-.416 3.442 1.375 6.632 4.29 5.3 4.844 14.056 9.147 18.614 9.147 2.746 0 2.277-.992-5.099-10.78-8.671-11.507-12.433-18.068-16.09-28.055-4.017-10.979-5.02-23.055-2.59-31.22 1.402-4.712 9.092-16.888 10.693-16.93.307-.008.532 5.729.5 12.75-.057 12.46.02 12.922 3.229 19.446 2.959 6.018 10.86 14.789 13.322 14.789.455 0 .954-5.287 1.11-11.75l.281-11.75 6.269 6.413c8.487 8.683 9.933 22.588 7.61-11.217-1.418-20.643 16.823-30.527 30.965-44.953l7.1-7.243.528 11.026c.474 9.894.869 11.718 3.847 17.762 5.866 11.907 16.705 20.37 29.067 22.698 7.128 1.342 16.437 1.29 17.826-.098.815-.815-.307-3.812-4.213-11.25-15.838-30.156-15.155-57.152 2.125-83.962 4.943-7.669 18.352-24.033 19.09-23.296.243.244-.688 3.578-2.07 7.409-6.08 16.854-7.46 35.944-3.668 50.711 1.13 4.4 4.359 12.542 7.175 18.094 4.937 9.732 7.749 13.878 23.7 34.947 25.879 34.184 36.089 58.526 36.132 86.144.034 22.016-5.949 39.188-19.208 55.133-2.598 3.125-4.736 5.997-4.75 6.383-.014.386 2.937 2.357 6.557 4.382 3.62 2.024 6.807 4.267 7.082 4.983.275.717-.849 5.045-2.496 9.618-10.302 28.592-20.07 69.552-23.046 96.629-.503 4.572-1.073 8.456-1.268 8.63-.195.176-11.194 2.387-24.442 4.914-38.714 7.387-78.252 18.036-108.912 29.335-9.725 3.584-35.062 15.82-46.727 22.565-5.35 3.094-9.959 5.251-10.241 4.794zm80.016-36.084c28.535-9.628 63.499-18.03 105.665-25.395 3.242-.566 3.769-1.055 4.162-3.86 5.038-35.934 7.828-49.367 15.785-75.99 2.265-7.578 3.841-14.055 3.503-14.393-1.663-1.664-19.72 8.443-36.444 20.397-21.136 15.108-53.775 45.902-86.359 81.477C196.88 674.19 188.277 684 188.744 684c.467 0 6.229-1.815 12.803-4.033zM327.9 524.377c13.607-15.46 20.1-33.55 20.1-56.007 0-21.68-6.932-41.985-22.828-66.87-5.273-8.254-16.206-22.8-16.738-22.267-.204.204.712 3.498 2.036 7.319 6.198 17.891 8.146 39.484 4.982 55.24-3.296 16.419-15.27 35.166-30.06 47.069-4.595 3.698-14.622 10.497-22.283 15.109-21.543 12.969-21.202 11.966-4.109 12.092 20.328.15 33.349 2.44 52.786 9.29 5.343 1.882 10.238 3.473 10.879 3.535.64.062 2.996-1.967 5.235-4.51zm353.6 183.46c-35.546-20.045-80.426-35.187-124.104-41.873-17.83-2.73-54.692-3.752-73.079-2.028-29.279 2.746-68.66 11.785-94.817 21.764-13.607 5.19-39.044 17.184-47.973 22.62-3.885 2.364-6.313 3.294-6.949 2.658-1.42-1.42-1.203-46.879.3-62.978 4.098-43.885 13.279-80.69 27.564-110.5 11.125-23.216 32.286-50.775 44.558-58.028 1.333-.788 1.333-.654 0 1.206-22.009 30.711-31.586 54.716-37.51 94.01-1.874 12.441-1.919 15.677-.198 14.612 1.438-.89 21.432-22.382 35.166-37.8 32.443-36.422 55.286-59.007 74.125-73.29 16.598-12.585 37.653-23.765 52.558-27.909 3.253-.904 5.559-2.001 5.123-2.437-1.47-1.47-24.592-3.019-37.724-2.526-23.309.874-47.41 7.438-70.588 19.224l-13.025 6.623-5.713-4.303c-8.336-6.28-23.487-21.18-30.889-30.382-11.518-14.317-23.944-35.668-30.742-52.82-4.026-10.158-2.845-10.98 3.24-2.254 6.072 8.706 13.97 16.827 22.677 23.318 6.24 4.653 19.351 11.738 20.182 10.907.263-.262-3.73-5.354-8.87-11.314-13.947-16.168-20.644-27.44-25.226-42.463-3.13-10.263-3.854-19.175-1.586-19.547.825-.135 3.636 2.391 6.247 5.615 5.348 6.601 12.99 12.075 21.926 15.707 8.992 3.653 9.749 2.832 3.824-4.149-14.507-17.093-30.17-43.816-33.704-57.5-2.672-10.349-2.239-29.06.95-41.05 3.186-11.979 7.812-22.936 11.951-28.308 1.756-2.278 3.33-4.33 3.499-4.559 1.165-1.581 1.103 1.946-.187 10.5-1.89 12.542-1.893 26.903-.007 35.917 1.987 9.495 8.129 21.53 15.364 30.109 5.69 6.745 15.39 15.391 17.268 15.391 1.307 0 1.048-4.088-.608-9.591-1.966-6.53-4.753-24.541-4.346-28.086.31-2.713.474-2.597 4.182 2.945 4.677 6.99 12.05 13.605 19.72 17.693 8.744 4.661 9.329 4.4 8.288-3.711-.477-3.712-.834-14.175-.793-23.25.064-14.363.42-17.9 2.747-27.318 3.422-13.848 9.237-28.652 15.981-40.682 12.113-21.608 14.121-23.486 13.097-12.25-.748 8.2 1.62 23.018 5.026 31.45 7.787 19.28 24.513 35.34 50.075 48.081C538.698 285.35 575 296.11 575 292.03c0-.685-2.192-4.01-4.872-7.387-11.453-14.439-24.823-37.624-30.702-53.244-13.912-36.96-11.924-81.296 5.182-115.561C550.968 103.097 562 86.379 562 89.481c0 .33-.972 2.493-2.16 4.809-3.76 7.332-6.83 21.342-7.498 34.211-1.048 20.198 2.755 36.756 13.244 57.67 8.13 16.21 15.001 26.17 41.277 59.829 18.73 23.991 32.222 50.637 38.533 76.096 12.622 50.918-4.611 103.855-44.407 136.413-3.844 3.145-6.982 6.23-6.973 6.854.01.626 3.25 3.387 7.201 6.137 3.952 2.75 11.804 9.43 17.45 14.844 9.604 9.21 13.114 13.392 26.146 31.154 6.818 9.292 20.963 37.859 26.636 53.794 8.656 24.314 16.73 60.517 19.59 87.852 1.46 13.95 1.798 53.07.461 53.468-.55.165-5.05-1.985-10-4.776zm10.17-18.393c-.758-25.203-1.756-35.247-5.755-57.944-5.309-30.132-14.283-60.173-24.696-82.666-5.443-11.757-14.64-28-17.13-30.254-1.405-1.27-4.16-1.995-8.868-2.332-20.881-1.494-56.109 16.393-94.721 48.095-13.202 10.84-18.798 15.729-49.986 43.677-39.593 35.48-51.962 46.06-72.86 62.32-5.415 4.213-9.544 7.66-9.175 7.66.37 0 7.5-1.79 15.846-3.978 48.4-12.69 88.757-15.438 132.604-9.032 43.366 6.335 88.598 21.48 124.571 41.711 4.95 2.784 9.407 4.82 9.905 4.526.526-.312.637-9.418.265-21.783zm-94.26-229.388c15.517-12.023 28.07-27.303 36.604-44.556C644.494 394.31 648 378.905 648 354.038c0-25.068-5.962-47.162-19.84-73.524-5.341-10.146-15.438-25.95-17.323-27.115-.837-.517-.942-.175-.361 1.187.448 1.053 1.959 5.514 3.356 9.914 2.348 7.391 2.543 9.446 2.56 27 .016 17.51-.192 19.774-2.66 28.866-10.25 37.787-32.489 66.023-74.628 94.76C512.956 432.955 500 442.157 500 442.897c0 .44 7.763 1.075 17.25 1.411 16.447.584 18.004.821 33.438 5.108 8.903 2.472 21.503 6.713 28 9.423s12.221 4.98 12.721 5.044c.5.064 3.2-1.659 6-3.828z" fill="#fc5901"/><path d="M889.281 708.481C857.815 692.39 808.461 675.28 771 667.476c-4.675-.974-8.911-2.139-9.414-2.588-1.404-1.254 21.437-28.536 40.414-48.273 11.386-11.842 29.38-27.04 38.602-32.604 11.14-6.72 23.78-9.617 29.867-6.843 2.951 1.344 8.364 9.54 14.786 22.385 14.622 29.25 21.199 57.486 22.401 96.186.559 17.959.442 21.244-.747 21.149-.775-.062-8.707-3.845-17.628-8.407zm-207.781-1.78c-35.973-20.23-81.205-35.376-124.571-41.711-43.847-6.406-84.204-3.657-132.604 9.032C415.98 676.21 408.848 678 408.48 678c-.369 0 3.76-3.447 9.175-7.66 20.898-16.26 33.267-26.84 72.86-62.32 31.188-27.948 36.784-32.838 49.986-43.677 38.612-31.702 73.84-49.59 94.72-48.095 4.71.337 7.464 1.061 8.868 2.332 2.49 2.254 11.688 18.497 17.13 30.254 13.291 28.709 24.755 72.373 28.753 109.515 1.497 13.91 2.536 52.225 1.434 52.878-.498.295-4.955-1.742-9.905-4.526zm-473.64-44.498c32.583-35.575 65.222-66.369 86.358-81.477 16.723-11.954 34.78-22.06 36.444-20.397.338.338-1.238 6.815-3.503 14.393-7.957 26.623-10.747 40.056-15.785 75.99-.393 2.805-.92 3.294-4.162 3.86-42.166 7.364-77.13 15.767-105.665 25.395-6.574 2.218-12.336 4.033-12.803 4.033-.467 0 8.135-9.809 19.115-21.797zM845.966 546.46c-2.495-3.006-17.651-12.375-30.467-18.834-11.41-5.75-22.441-9.76-33.25-12.086-1.788-.384-3.25-1-3.248-1.37.002-.84 5.772-4.437 17.998-11.223 34.836-19.334 52.177-38.259 59.056-64.447 2.76-10.508 3.073-35.398.577-45.812-1.92-8.013-2.082-11.084-.532-10.126 4.328 2.675 24.995 40.766 29.265 53.938 9.95 30.699 7.982 59.942-5.588 83-4.732 8.041-15.692 19.387-23.947 24.79-6.248 4.088-7.96 4.465-9.864 2.17zm-534.18-21.11c-19.437-6.848-32.458-9.14-52.786-9.289-17.093-.126-17.434.877 4.11-12.092 7.66-4.612 17.687-11.41 22.282-15.11 14.79-11.902 26.764-30.65 30.06-47.068 3.164-15.756 1.216-37.349-4.982-55.24-1.324-3.821-2.24-7.115-2.036-7.32.532-.531 11.465 14.014 16.738 22.268C341.068 426.385 348 446.69 348 468.37c0 22.457-6.493 40.548-20.1 56.007-2.239 2.543-4.594 4.572-5.235 4.51-.64-.062-5.536-1.653-10.88-3.536zm266.902-66.511c-6.497-2.71-19.097-6.95-28-9.423-15.434-4.287-16.991-4.524-33.438-5.108-9.487-.336-17.25-.971-17.25-1.411 0-.74 12.956-9.941 39.104-27.773 24.763-16.886 44.045-35 55.38-52.028 7.749-11.639 15.455-28.747 19.249-42.73 2.467-9.093 2.675-11.358 2.658-28.867-.016-17.554-.211-19.609-2.559-27-1.397-4.4-2.908-8.861-3.356-9.914-1.753-4.114 1.688-.233 7.157 8.073 10.072 15.294 20.606 37.257 24.73 51.56 5.787 20.074 7.278 43.719 4.042 64.075-5.01 31.509-23.101 61.7-48.996 81.762-2.8 2.17-5.5 3.892-6 3.828-.5-.064-6.224-2.334-12.721-5.044z" fill="#f12700"/><path d="M889.5 711.562c-44.537-22.883-112.122-43.243-176.175-53.072-3.983-.611-4.206-.832-4.85-4.815-4.896-30.236-13.426-64.684-23.002-92.889-8.074-23.782-9.199-27.773-7.836-27.808.474-.012 1.964-.869 3.31-1.903l2.448-1.881-5.604-6.053c-35.885-38.76-32.776-103.63 7.233-150.891 7.1-8.388 8.471-8.295 7.342.5-2.556 19.917-.662 29.374 7.728 38.588l4.406 4.838.092-11.838c.398-51.134 47.177-105.51 115.408-134.15 19.548-8.205 20.812-8.08 15.04 1.479-16.984 28.126-10.417 56.89 25.646 112.333 44.753 68.803 44.844 126.992.248 159.61-9.49 6.941-9.523 4.652.228 15.669 26.455 29.887 43.768 71.255 47.803 114.221 1.52 16.19 1.379 47.526-.215 47.405-.687-.052-9.35-4.256-19.25-9.343zm18.211-15.812c-1.42-56.05-17.425-100.379-49.082-135.944-10.242-11.506-10.054-10.504-2.879-15.384 46.973-31.943 48.464-88.936 4.119-157.422-15.107-23.33-18.51-29.065-23.363-39.355-14.459-30.668-16.107-56.624-4.739-74.645a604.241 604.241 0 003.542-5.665c1.06-1.756-13.166 3.92-27.809 11.096-64.04 31.38-105.624 86.457-101.033 133.819.83 8.56-.287 8.748-7.378 1.25-9.087-9.608-11.961-22.746-8.818-40.307l.77-4.307-4.487 5.053c-40.041 45.084-42.287 110.492-5.146 149.883l5.017 5.321-3.765 3.179-3.765 3.178 4 10.627c10.711 28.445 21.585 70.295 27.552 106.038l.612 3.664 7.22 1.182c69.966 11.449 157.363 39.414 186.113 59.551 3.78 2.648 3.895 1.929 3.319-20.812zm-789.208 8.323c-.704-15.493-.468-21.82 1.594-42.573 4.343-43.71 19.102-81.81 42.126-108.75 2.703-3.163 4.45-5.75 3.884-5.75-1.978 0-18.96-14.938-25.122-22.097-36.416-42.312-34.469-102.874 4.909-152.653 5.88-7.435 7.373-7.084 6.384 1.5-2.22 19.266.435 30.744 9.04 39.076l3.435 3.327.494-15.327c1.575-48.828 39.384-96.374 100.753-126.7 26.32-13.005 31.066-13.632 25.762-3.404-16.095 31.04-12.501 62.53 10.817 94.778 3.58 4.95 10.75 14.85 15.936 22 39.087 53.897 43.018 100.01 11.786 138.243l-3.2 3.917 7.45 4.238c8.43 4.796 8.166 4.238 5.331 11.315-11.598 28.956-25.811 87.463-25.872 106.502-.012 3.97-1.27 4.686-11.01 6.268-69.978 11.366-136.505 33.529-175.475 58.458-8.484 5.427-8.194 5.824-9.022-12.368zm23.997 1.179c41.53-22.336 82.08-34.781 164.107-50.364l5.106-.97.61-7.21c2.085-24.626 12.198-67.155 22.284-93.708 5.104-13.438 5.083-13.613-2.107-17.565-9.056-4.977-9.066-4.994-5.509-9.26 33.638-40.329 28.976-83.977-15.398-144.175-34.44-46.72-40.576-76.547-22.732-110.5 1.445-2.75 2.77-5.309 2.945-5.686 1.686-3.64-35.393 14.95-51.947 26.045-47.26 31.672-72.359 70.136-72.359 110.89 0 19.092-.237 19.395-8.41 10.752-8.85-9.357-11.713-20.825-9.319-37.322l.917-6.321-2.324 2.821c-47.362 57.485-39.315 134.763 17.886 171.772 3.67 2.374 3.635 2.493-3.14 10.815-25.033 30.748-38.78 69.736-41.863 118.734-.811 12.885-.86 16.938-.434 35.716l.187 8.216 4.25-2.844c2.337-1.564 10.1-5.99 17.25-9.836zm189.719 7.998c-1.165-2.837-.684-50.544.663-65.75 6.818-76.974 30.102-132.772 70.098-167.982 4.954-4.362 8.673-8.207 8.264-8.545-.41-.338-3.669-2.903-7.244-5.701C347.49 421.047 319.168 337.45 340.554 278c8.44-23.46 38.453-66.89 36.109-52.25-.33 2.063-1.286 8.025-2.125 13.25-4.197 26.164.021 45.608 13.596 62.668 5.215 6.555 17.902 18.186 16.168 14.823-7.693-14.914-8.343-60.016-1.24-86.02 16.446-60.206 82.443-124.168 157.774-152.91 13.569-5.176 14.496-4.84 8.78 3.187-15.968 22.422-19.948 56.558-10.037 86.08 6.207 18.492 15.877 34.567 39.714 66.018 68.522 90.407 69.124 176.34 1.597 227.836-6.05 4.614-6.228 3.862 2.314 9.818C657.824 508.582 694 598.684 694 696.645c0 21.08.519 20.244-9.154 14.753-109.17-61.972-236.115-62.258-342.944-.771-8.645 4.976-8.71 4.993-9.683 2.623zm8.955-4.932c99.384-58.247 219.768-61.198 326.826-8.011 12.375 6.147 22.837 11.331 23.25 11.519 2.898 1.317.025-49.487-4.26-75.326-12.733-76.793-42.358-133.397-86.463-165.204-7.92-5.711-8.75-7.052-5.585-9.028 53.403-33.35 68.685-112.832 34.555-179.718-7.435-14.573-17.064-28.653-42.092-61.55-39.48-51.892-46.454-103.393-19.254-142.172 6.021-8.585-46.975 18.428-73.523 37.475-77.406 55.538-108.826 124.326-89.5 195.948 3.136 11.62 1.195 11.275-12.179-2.164-20.495-20.593-26.694-46.213-19.377-80.087.691-3.203-3.16 1.122-12.318 13.831-37.178 51.594-34.642 115.266 7.108 178.492 11.942 18.084 33.971 41.168 45.383 47.554 1.23.688-1.654 4.048-13.942 16.245C358.88 526.743 338.92 580.66 333.95 664c-.926 15.526-.504 48 .624 48 .176 0 3.146-1.657 6.6-3.682zM375 226.5c0-.275-.225-.5-.5-.5s-.5.225-.5.5.225.5.5.5.5-.225.5-.5z" fill="#fca307"/><g fill="#fff" stroke="#f12700" stroke-width="3"><circle cx="277.968" cy="435.154" r="26.632"/><circle cx="204.684" cy="435.345" r="26.632"/><circle cx="810.25" cy="434.944" r="26.632"/><circle cx="736.459" cy="435.022" r="26.632"/><circle r="32.852" cy="336.795" cx="550.299"/><circle r="32.852" cy="336.894" cx="458.542"/></g><path d="M486.289 918.576q-6.614 0-11.408-4.464-4.63-4.63-4.63-11.739 0-7.11 4.63-11.408 4.794-4.464 11.408-4.464 6.778 0 11.408 4.464 4.629 4.299 4.629 11.408 0 7.11-4.63 11.739-4.629 4.464-11.407 4.464z" fill="#fc5901"/><path d="M546.907 904.576q-15.706 0-24.469-7.936-8.763-8.102-8.763-23.974V794.63h25.792v77.707q0 5.621 2.976 8.762 2.976 2.976 8.102 2.976 6.117 0 10.416-3.306l6.944 18.186q-3.968 2.811-9.59 4.299-5.456 1.323-11.408 1.323zm-46.954-70.432v-19.84h61.669v19.84zm123.865 70.432q-15.21 0-26.783-5.952-11.408-5.952-17.691-16.203-6.283-10.416-6.283-23.643 0-13.392 6.118-23.642 6.282-10.416 17.029-16.203 10.747-5.952 24.304-5.952 13.061 0 23.477 5.622 10.581 5.455 16.699 15.871 6.117 10.251 6.117 24.635 0 1.488-.165 3.472-.166 1.819-.33 3.472h-72.251v-15.045h58.693l-9.92 4.464q0-6.944-2.81-12.07-2.812-5.125-7.772-7.936-4.96-2.976-11.573-2.976t-11.738 2.976q-4.96 2.811-7.771 8.102-2.81 5.125-2.81 12.234v3.968q0 7.275 3.14 12.896 3.307 5.456 9.094 8.432 5.952 2.811 13.888 2.811 7.11 0 12.4-2.15 5.456-2.149 9.92-6.447l13.722 14.88q-6.117 6.944-15.376 10.746-9.258 3.638-21.328 3.638zm112.262-1.323v-17.36l-1.654-3.803v-31.082q0-8.267-5.125-12.896-4.96-4.63-15.376-4.63-7.11 0-14.053 2.315-6.779 2.15-11.573 5.952l-9.26-18.021q7.276-5.125 17.526-7.936 10.25-2.81 20.832-2.81 20.336 0 31.579 9.588 11.242 9.59 11.242 29.926v50.757zm-27.115 1.323q-10.416 0-17.856-3.472-7.44-3.638-11.408-9.755-3.968-6.117-3.968-13.723 0-7.936 3.803-13.888 3.968-5.952 12.4-9.258 8.432-3.472 21.99-3.472h23.642v15.045h-20.832q-9.094 0-12.565 2.976-3.307 2.976-3.307 7.44 0 4.96 3.803 7.936 3.967 2.81 10.746 2.81 6.448 0 11.573-2.975 5.126-3.142 7.44-9.094l3.968 11.904q-2.81 8.598-10.25 13.062-7.44 4.464-19.179 4.464zm74.565-1.323v-88.95h24.635v24.305l-4.63-7.11q4.63-9.093 13.062-13.722 8.597-4.795 19.51-4.795 12.234 0 21.327 6.283 9.259 6.117 12.235 18.848l-9.093-2.48q4.464-10.416 14.218-16.534 9.92-6.117 22.65-6.117 10.582 0 18.684 4.299 8.266 4.133 12.895 12.896 4.795 8.597 4.795 22.154v50.923h-25.792v-46.955q0-10.746-4.464-15.872-4.464-5.125-12.565-5.125-5.621 0-10.085 2.645-4.464 2.48-6.944 7.606-2.48 5.125-2.48 13.061v44.64h-25.792v-46.955q0-10.746-4.464-15.872-4.299-5.125-12.4-5.125-5.622 0-10.086 2.645-4.464 2.48-6.944 7.606-2.48 5.125-2.48 13.061v44.64zM73.675 903.253V812.32q0-15.045 8.928-23.973 8.928-9.094 25.462-9.094 5.62 0 10.746 1.158 5.29 1.157 8.928 3.637l-6.778 18.683q-2.15-1.488-4.795-2.315t-5.621-.827q-5.622 0-8.763 3.307-2.976 3.141-2.976 9.59v8.266l.661 11.077v71.424zm-13.722-67.125v-19.84h61.669v19.84zm75.226 67.125v-88.95h25.792v88.95zm12.896-101.35q-7.11 0-11.573-4.132-4.464-4.134-4.464-10.251 0-6.117 4.464-10.25 4.464-4.134 11.573-4.134 7.11 0 11.573 3.968 4.464 3.803 4.464 9.92 0 6.448-4.464 10.747-4.298 4.133-11.573 4.133zm36.704 101.35v-88.95h24.635v25.131l-3.472-7.274q3.968-9.424 12.73-14.219 8.763-4.96 21.328-4.96v23.808q-1.653-.165-2.976-.165-1.322-.166-2.81-.166-10.582 0-17.195 6.118-6.448 5.952-6.448 18.682v41.995zm113.978 1.323q-15.21 0-26.784-5.952-11.408-5.952-17.69-16.203-6.284-10.416-6.284-23.643 0-13.392 6.118-23.642 6.282-10.416 17.03-16.203 10.746-5.952 24.303-5.952 13.061 0 23.477 5.622 10.582 5.455 16.699 15.871 6.117 10.251 6.117 24.635 0 1.488-.165 3.472-.165 1.819-.33 3.472h-72.251v-15.045h58.693l-9.92 4.464q0-6.944-2.81-12.07-2.811-5.125-7.771-7.936-4.96-2.976-11.574-2.976-6.613 0-11.738 2.976-4.96 2.811-7.77 8.102-2.812 5.125-2.812 12.234v3.968q0 7.275 3.142 12.896 3.306 5.456 9.093 8.432 5.952 2.811 13.888 2.811 7.11 0 12.4-2.15 5.456-2.149 9.92-6.447l13.723 14.88q-6.118 6.944-15.376 10.746-9.259 3.638-21.328 3.638zm98.373 0q-12.565 0-22.65-5.622-10.086-5.786-16.038-16.037-5.787-10.25-5.787-24.139 0-14.053 5.787-24.304 5.952-10.25 16.037-15.871 10.086-5.622 22.651-5.622 11.243 0 19.675 4.96t13.06 15.045q4.63 10.086 4.63 25.792 0 15.542-4.464 25.792-4.464 10.086-12.896 15.046-8.266 4.96-20.005 4.96zm4.464-21.163q6.283 0 11.408-2.976 5.125-2.976 8.101-8.432 3.142-5.621 3.142-13.227 0-7.77-3.142-13.226-2.976-5.456-8.101-8.432-5.125-2.976-11.408-2.976-6.448 0-11.573 2.976-5.126 2.976-8.267 8.432-2.976 5.456-2.976 13.226 0 7.606 2.976 13.227 3.141 5.456 8.267 8.432 5.125 2.976 11.573 2.976zm23.312 19.84v-18.187l.496-26.453-1.653-26.288v-51.75h25.792v122.678z" fill="#f2f2f2"/></svg>